<?xml version="1.0" standalone="no"?>
<!DOCTYPE svg PUBLIC "-//W3C//DTD SVG 20010904//EN"
 "http://www.w3.org/TR/2001/REC-SVG-20010904/DTD/svg10.dtd">
<svg version="1.0" xmlns="http://www.w3.org/2000/svg"
 width="183.000000pt" height="240.000000pt" viewBox="0 0 183.000000 240.000000"
 preserveAspectRatio="xMidYMid meet">
<metadata>
Created by potrace 1.16, written by Peter Selinger 2001-2019
</metadata>
<g transform="translate(0.000000,240.000000) scale(0.100000,-0.100000)"
fill="#5917cb" stroke="none">
<path d="M460 2122 c-419 -274 -425 -278 -428 -313 -3 -30 20 -74 158 -309
137 -230 160 -276 152 -294 -5 -12 -85 -142 -176 -289 -145 -233 -167 -274
-164 -304 3 -34 11 -40 443 -324 329 -216 448 -289 470 -289 22 0 137 70 455
278 419 274 425 278 428 313 3 30 -20 74 -158 309 -137 230 -160 276 -152 294
5 12 84 142 176 289 167 269 182 303 154 338 -7 9 -207 142 -444 297 -318 208
-438 282 -460 282 -21 0 -146 -77 -454 -278z m183 -436 c-114 -184 -211 -332
-214 -328 -24 25 -251 426 -244 429 6 2 156 99 335 216 l325 213 3 -98 3 -97
-208 -335z m690 301 c186 -122 339 -226 339 -232 0 -12 -264 -444 -272 -444
-3 0 -98 159 -212 354 l-208 354 0 95 c0 53 3 96 8 96 4 0 159 -101 345 -223z
m-483 -525 l0 -298 -92 -54 c-51 -30 -103 -60 -115 -68 -20 -13 -24 -9 -78 82
l-57 96 167 270 c93 148 170 270 172 270 1 0 3 -134 3 -298z m309 -4 l163
-278 -52 -84 -52 -85 -57 36 c-31 20 -84 54 -118 76 l-63 39 0 296 c0 163 4
292 8 287 5 -6 82 -135 171 -287z m-688 -432 l36 -64 -120 -71 c-66 -39 -121
-70 -122 -69 -3 4 159 267 165 267 3 0 21 -28 41 -63z m1001 -99 c36 -62 65
-113 63 -115 -1 -2 -48 27 -104 63 l-102 66 22 37 c13 20 27 45 33 54 6 9 13
15 16 12 3 -3 35 -56 72 -117z m-624 -189 l-3 -92 -75 129 c-41 71 -75 133
-75 137 0 5 34 28 75 52 l75 44 3 -89 c1 -49 1 -130 0 -181z m217 215 c41 -27
75 -52 75 -57 0 -10 -151 -256 -157 -256 -1 0 -3 81 -3 180 0 99 2 180 5 180
3 0 39 -21 80 -47z m-351 -340 l136 -232 0 -95 c0 -53 -3 -96 -6 -96 -4 0
-152 95 -330 212 -205 134 -320 216 -314 222 10 10 374 226 376 223 1 -1 63
-106 138 -234z m727 100 c93 -60 167 -112 166 -116 -1 -5 -143 -100 -315 -212
l-312 -204 0 99 0 99 136 221 c75 121 141 220 146 220 6 0 86 -48 179 -107z"/>
</g>
</svg>
