<?xml version="1.0" encoding="UTF-8"?>
<svg width="80px" height="21px" viewBox="0 0 80 21" version="1.1" xmlns="http://www.w3.org/2000/svg" xmlns:xlink="http://www.w3.org/1999/xlink">
    <!-- Generator: Sketch 63.1 (92452) - https://sketch.com -->
    <title>Group 8</title>
    <desc>Created with Sketch.</desc>
    <defs>
        <polygon id="path-1" points="0 20.6060606 80 20.6060606 80 0 0 0"></polygon>
    </defs>
    <g id="Page-1" stroke="none" stroke-width="1" fill="none" fill-rule="evenodd">
        <g id="Desktop-/-Términos-y-condiciones" transform="translate(-96.000000, -35.000000)">
            <g id="Group-8" transform="translate(96.000000, 35.000000)">
                <path d="M0,6.31472912 L3.68741086,6.31472912 L3.68741086,7.52627798 C4.6094402,6.97682272 5.50815387,6.59495131 6.38496492,6.38135057 C7.26106943,6.16706302 8.11880401,6.06060606 8.95746212,6.06060606 C10.1288986,6.06060606 11.2042463,6.2419263 12.1849181,6.60525359 C13.1641769,6.96858089 14.0035415,7.51803616 14.7008924,8.25224576 C15.2413924,7.84839613 15.7727074,7.50704705 16.2962505,7.22888532 C16.8190871,6.95072359 17.3419236,6.72476011 17.8661733,6.55099489 C18.3890098,6.37722966 18.9210314,6.25222858 19.4601183,6.17530485 C20.0006182,6.09906793 20.556662,6.06060606 21.1303691,6.06060606 C22.3343063,6.06060606 23.4266108,6.21926127 24.4065761,6.53863214 C25.3865414,6.85800302 26.2237864,7.33190818 26.9168981,7.96172128 C27.6107164,8.59153438 28.1462706,9.37656859 28.5249738,10.3175107 C28.902264,11.2577661 29.0909091,12.3456875 29.0909091,13.581275 L29.0909091,20.6060606 L25.4155093,20.6060606 L25.4155093,14.1630108 C25.4155093,13.3793502 25.3017571,12.6794816 25.073546,12.0613444 C24.8453349,11.443894 24.5245676,10.9225984 24.1133637,10.498831 C23.7028663,10.0750636 23.2125304,9.75225863 22.643769,9.53041607 C22.0750076,9.30788669 21.4497233,9.19662199 20.7686227,9.19662199 C20.3948653,9.19662199 20.0133359,9.23164977 19.6226215,9.30033168 C19.2319072,9.36832677 18.8517908,9.47615736 18.4829791,9.62038937 C18.1127543,9.76599501 17.7658452,9.95006253 17.4422517,10.1719051 C17.1179518,10.3937477 16.8360439,10.6540521 16.5951152,10.9535052 L16.5951152,20.6060606 L12.9197154,20.6060606 L12.9197154,14.1630108 C12.9197154,13.3793502 12.8059632,12.6794816 12.5770455,12.0613444 C12.3481279,11.443894 12.0287737,10.9225984 11.6175698,10.498831 C11.2063659,10.0750636 10.7124973,9.75225863 10.1352575,9.53041607 C9.55801764,9.30788669 8.92425494,9.19662199 8.23538243,9.19662199 C7.8114609,9.19662199 7.38612628,9.2398916 6.95796553,9.32437034 C6.53051131,9.40884909 6.11930742,9.52835561 5.72435385,9.68151627 C5.33010682,9.83467692 4.96058854,10.0208049 4.61579903,10.2385265 C4.27100951,10.4562482 3.96154678,10.7035031 3.68741086,10.9775439 L3.68741086,20.6060606 L0,20.6060606 L0,6.31472912 Z" id="Fill-1" fill="#E84E1B"></path>
                <path d="M37.8154846,15.8091051 C37.8154846,16.0399746 37.8774795,16.2600432 38.0021738,16.469986 C38.1254592,16.6806038 38.3248292,16.8662445 38.5974659,17.0296083 C38.8715115,17.192297 39.2209374,17.3232581 39.6478568,17.4224915 C40.0740718,17.5217249 40.5897568,17.571004 41.1942071,17.571004 C41.8402222,17.571004 42.4658072,17.5156494 43.0702575,17.404265 C43.6747079,17.2928805 44.2375935,17.1463932 44.7596188,16.9641277 C45.2816441,16.7811873 45.7536508,16.5712445 46.1756388,16.3329494 C46.5983314,16.0953293 46.9505752,15.8496085 47.2316657,15.595112 L47.2316657,14.9760847 C46.6680756,14.825547 46.1115304,14.6979612 45.5606212,14.5946775 C45.0104164,14.4920688 44.4841641,14.4110619 43.9832735,14.3509819 C43.4823828,14.2915768 43.0096716,14.2497233 42.5672534,14.2260963 C42.1241307,14.2024693 41.7366625,14.1909933 41.4055534,14.1909933 C40.7179735,14.1909933 40.1466341,14.234197 39.6908306,14.3212793 C39.2357316,14.4090368 38.8665801,14.5258216 38.5854896,14.672309 C38.3036945,14.8194715 38.105029,14.9922861 37.9894931,15.1900778 C37.8732526,15.3885446 37.8154846,15.595112 37.8154846,15.8091051 M33.9393939,15.9285902 C33.9393939,15.2542082 34.0929722,14.6392312 34.3987198,14.0829842 C34.7051719,13.5280873 35.1652023,13.0494718 35.7781065,12.6484879 C36.3910107,12.2481791 37.1553798,11.939003 38.0698047,11.7202845 C38.984934,11.502241 40.0515282,11.3928818 41.2688828,11.3928818 C42.1720359,11.3928818 43.1216851,11.4570122 44.119944,11.5832479 C45.1174985,11.7108337 46.1467548,11.9052501 47.2070086,12.1664972 C47.1654439,11.7223097 47.0245464,11.311875 46.7843161,10.9345181 C46.5447903,10.5578362 46.2108632,10.2324587 45.7846482,9.95838554 C45.3577287,9.68498743 44.8448618,9.47234446 44.2439339,9.32180673 C43.6430059,9.17126901 42.9624709,9.09566262 42.2009199,9.09566262 C41.7866812,9.09566262 41.3308777,9.11928961 40.8342139,9.16654361 C40.3368457,9.21447266 39.8239787,9.28602871 39.2942041,9.38188681 C38.7637249,9.4763948 38.2402907,9.5958799 37.7217878,9.73831694 C37.2046939,9.88142904 36.7221199,10.0522185 36.2747703,10.2506853 L35.157453,7.35739068 C35.7118847,7.16702459 36.3057677,6.99218481 36.9398066,6.8335464 C37.5731409,6.67558305 38.2212695,6.53854646 38.8841923,6.4231117 C39.5464106,6.308352 40.208629,6.21924447 40.8715518,6.15511405 C41.5337701,6.09165869 42.1755583,6.06060606 42.7969164,6.06060606 C45.5380776,6.06060606 47.5754557,6.73093772 48.9090507,8.07160105 C50.2426457,9.41293944 50.9090909,11.4684882 50.9090909,14.2382473 L50.9090909,20.3562895 L47.2316657,20.3562895 L47.2316657,19.0352028 C46.8505379,19.249871 46.4341858,19.451713 45.9833137,19.6427542 C45.5317372,19.8324452 45.0414138,19.9991843 44.5116391,20.1422964 C43.98116,20.2854085 43.411934,20.398143 42.8032567,20.4818501 C42.1945795,20.5648821 41.5506778,20.6060606 40.8715518,20.6060606 C39.7288729,20.6060606 38.7242736,20.4879256 37.8591629,20.2489554 C36.9933476,20.0113353 36.2712478,19.6819075 35.6907501,19.2613469 C35.1109568,18.8407864 34.6741745,18.3466446 34.3804032,17.7795967 C34.0866318,17.2118737 33.9393939,16.5948715 33.9393939,15.9285902" id="Fill-3" fill="#E84E1B"></path>
                <mask id="mask-2" fill="white">
                    <use xlink:href="#path-1"></use>
                </mask>
                <g id="Clip-6"></g>
                <path d="M55.1003629,20.6060606 L58.8283185,20.6060606 L58.8283185,5.91407496 L55.1003629,5.91407496 L55.1003629,20.6060606 Z M56.9636265,3.90953117 C56.5936876,3.90953117 56.2608855,3.85798777 55.9630775,3.75419491 C55.6645554,3.65040205 55.4103117,3.50918727 55.2003464,3.33055057 C54.9903811,3.15191388 54.8296933,2.94432815 54.7161406,2.70779339 C54.6018738,2.47125864 54.5454545,2.22060241 54.5454545,1.95511862 C54.5454545,1.68045587 54.6018738,1.4255632 54.7161406,1.18902844 C54.8296933,0.952493687 54.9903811,0.747026183 55.2003464,0.57262593 C55.4103117,0.398931752 55.6645554,0.25912912 55.9630775,0.155336257 C56.2608855,0.0522494684 56.5936876,0 56.9636265,0 C57.3414213,0 57.6792226,0.0522494684 57.9777447,0.155336257 C58.2755527,0.25912912 58.5290822,0.398931752 58.7390476,0.57262593 C58.9490129,0.747026183 59.111129,0.952493687 59.2239675,1.18902844 C59.3375201,1.4255632 59.3939394,1.68045587 59.3939394,1.95511862 C59.3939394,2.22060241 59.3375201,2.47125864 59.2239675,2.70779339 C59.111129,2.94432815 58.9490129,3.15191388 58.7390476,3.33055057 C58.5290822,3.50918727 58.2755527,3.65040205 57.9777447,3.75419491 C57.6792226,3.85798777 57.3414213,3.90953117 56.9636265,3.90953117 L56.9636265,3.90953117 Z" id="Fill-5" fill="#E84E1B" mask="url(#mask-2)"></path>
                <path d="M66.9063937,15.8091051 C66.9063937,16.0399746 66.9683886,16.2600432 67.0930829,16.469986 C67.2163683,16.6806038 67.4157383,16.8662445 67.6883749,17.0296083 C67.9624206,17.192297 68.3118465,17.3232581 68.7387659,17.4224915 C69.1649809,17.5217249 69.6806658,17.571004 70.2851162,17.571004 C70.9311313,17.571004 71.5567163,17.5156494 72.1611666,17.404265 C72.765617,17.2928805 73.3285026,17.1463932 73.8505279,16.9641277 C74.3725532,16.7811873 74.8445598,16.5712445 75.2665479,16.3329494 C75.6892405,16.0953293 76.0414843,15.8496085 76.3225748,15.595112 L76.3225748,14.9760847 C75.7589847,14.825547 75.2024395,14.6979612 74.6515302,14.5946775 C74.1013254,14.4920688 73.5750732,14.4110619 73.0741825,14.3509819 C72.5732919,14.2915768 72.1005807,14.2497233 71.6581625,14.2260963 C71.2150398,14.2024693 70.8275716,14.1909933 70.4964625,14.1909933 C69.8088826,14.1909933 69.2375431,14.234197 68.7817397,14.3212793 C68.3266407,14.4090368 67.9574892,14.5258216 67.6763987,14.672309 C67.3946036,14.8194715 67.1959381,14.9922861 67.0804022,15.1900778 C66.9641617,15.3885446 66.9063937,15.595112 66.9063937,15.8091051 M63.030303,15.9285902 C63.030303,15.2542082 63.1838813,14.6392312 63.4896289,14.0829842 C63.796081,13.5280873 64.2561114,13.0494718 64.8690156,12.6484879 C65.4819198,12.2481791 66.2462889,11.939003 67.1607137,11.7202845 C68.0758431,11.502241 69.1424373,11.3928818 70.3597919,11.3928818 C71.262945,11.3928818 72.2125942,11.4570122 73.2108531,11.5832479 C74.2084076,11.7108337 75.2376639,11.9052501 76.2979177,12.1664972 C76.256353,11.7223097 76.1154555,11.311875 75.8752252,10.9345181 C75.6356994,10.5578362 75.3017723,10.2324587 74.8755573,9.95838554 C74.4486378,9.68498743 73.9357709,9.47234446 73.3348429,9.32180673 C72.733915,9.17126901 72.05338,9.09566262 71.291829,9.09566262 C70.8775902,9.09566262 70.4217868,9.11928961 69.925123,9.16654361 C69.4277548,9.21447266 68.9148878,9.28602871 68.3851132,9.38188681 C67.854634,9.4763948 67.3311997,9.5958799 66.8126969,9.73831694 C66.295603,9.88142904 65.813029,10.0522185 65.3656794,10.2506853 L64.2483621,7.35739068 C64.8027938,7.16702459 65.3966768,6.99218481 66.0307157,6.8335464 C66.66405,6.67558305 67.3121786,6.53854646 67.9751014,6.4231117 C68.6373197,6.308352 69.2995381,6.21924447 69.9624609,6.15511405 C70.6246792,6.09165869 71.2664674,6.06060606 71.8878254,6.06060606 C74.6289866,6.06060606 76.6663647,6.73093772 77.9999597,8.07160105 C79.3335547,9.41293944 80,11.4684882 80,14.2382473 L80,20.3562895 L76.3225748,20.3562895 L76.3225748,19.0352028 C75.941447,19.249871 75.5250949,19.451713 75.0742228,19.6427542 C74.6226463,19.8324452 74.1323229,19.9991843 73.6025482,20.1422964 C73.0720691,20.2854085 72.5028431,20.398143 71.8941658,20.4818501 C71.2854886,20.5648821 70.6415869,20.6060606 69.9624609,20.6060606 C68.819782,20.6060606 67.8151827,20.4879256 66.950072,20.2489554 C66.0842567,20.0113353 65.3621569,19.6819075 64.7816592,19.2613469 C64.2018659,18.8407864 63.7650836,18.3466446 63.4713123,17.7795967 C63.1775409,17.2118737 63.030303,16.5948715 63.030303,15.9285902" id="Fill-7" fill="#E84E1B" mask="url(#mask-2)"></path>
            </g>
        </g>
    </g>
</svg>