<svg width="88" height="80" viewBox="0 0 88 80" fill="none" xmlns="http://www.w3.org/2000/svg">
  <path fill-rule="evenodd" clip-rule="evenodd" d="M44.1042 43.2979C54.0123 33.3898 54.0123 17.3255 44.1042 7.41895L26.1641 25.3577L44.1042 43.2979Z" fill="#EF7F00"/>
  <path fill-rule="evenodd" clip-rule="evenodd" d="M62.0676 25.3359L44.1289 43.2761L62.0676 61.2149C71.9742 51.3068 71.9757 35.244 62.0676 25.3359Z" fill="#FBBF40"/>
  <path fill-rule="evenodd" clip-rule="evenodd" d="M79.9426 7.45996L62.0039 25.3987L79.9441 43.3389C89.8507 33.4309 89.8492 17.368 79.9426 7.45996Z" fill="#E84E1B"/>
  <path fill-rule="evenodd" clip-rule="evenodd" d="M44.1966 43.208L26.2578 61.1468L44.1966 79.0855C54.1017 69.1789 54.1032 53.116 44.1966 43.208Z" fill="#E84E1B"/>
  <path fill-rule="evenodd" clip-rule="evenodd" d="M26.2566 61.1465C36.1646 51.2385 36.1632 35.1756 26.2566 25.2676L8.31641 43.2063L26.2566 61.1465Z" fill="#FBBF40"/>
  <path fill-rule="evenodd" clip-rule="evenodd" d="M62.0051 25.4L79.9453 7.45979C70.0373 -2.44825 53.9716 -2.44681 44.0664 7.45979L62.0051 25.4Z" fill="#FBBF40"/>
  <path fill-rule="evenodd" clip-rule="evenodd" d="M8.31739 43.2071L26.2561 25.2683L8.31595 7.32812C-1.59065 17.2362 -1.58921 33.3005 8.31739 43.2071Z" fill="#E84E1B"/>
  <path fill-rule="evenodd" clip-rule="evenodd" d="M8.21484 7.42995L26.155 25.3701L44.0938 7.42995C34.1872 -2.47665 18.1214 -2.47665 8.21484 7.42995Z" fill="#FBBF40"/>
</svg>
